<?xml version="1.0" encoding="utf-8"?>
<svg viewBox="170.883 42.205 357.206 475.588" xmlns="http://www.w3.org/2000/svg">
  <path d="M 514.41 168 C 514.41 165.895 513.375 164.152 511.984 162.805 C 511.957 162.781 511.957 162.75 511.922 162.727 L 511.082 161.875 C 510.976 161.809 510.937 161.691 510.836 161.629 L 407.396 58.189 C 406.45 57.248 405.251 56.705 403.986 56.376 C 403.677 56.29 403.415 56.248 403.111 56.205 C 402.771 56.15 402.47 55.998 402.122 55.998 L 193.052 55.998 C 188.923 55.998 185.587 59.333 185.587 63.462 L 185.587 496.532 C 185.587 500.653 188.923 503.997 193.052 503.997 L 506.652 503.997 C 510.781 503.997 514.117 500.653 514.117 496.532 L 514.117 169.442 C 514.223 168.962 514.406 168.505 514.406 167.997 L 514.41 168 Z M 200.52 489.07 L 200.52 70.93 L 394.66 70.93 L 394.66 167.996 C 394.66 172.125 397.996 175.461 402.125 175.461 L 499.191 175.461 L 499.191 489.071 L 200.52 489.07 Z" style=""/>
  <path d="M 312.52 265.84 C 312.52 278.223 302.489 288.238 290.122 288.238 C 277.747 288.238 267.724 278.218 267.724 265.84 C 267.724 253.477 277.747 243.442 290.122 243.442 C 297.563 243.442 304.157 247.075 308.231 252.661 C 310.926 256.356 312.52 260.915 312.52 265.841 L 312.52 265.84 Z"/>
  <path d="M 431.99 265.84 C 431.99 278.211 421.963 288.242 409.592 288.242 C 397.221 288.242 387.194 278.211 387.194 265.84 C 387.194 253.469 397.221 243.442 409.592 243.442 C 421.963 243.442 431.99 253.469 431.99 265.84"/>
  <path d="M 394.66 375.64 C 390.527 375.64 387.191 372.296 387.191 368.175 C 387.191 347.577 370.453 330.839 349.863 330.839 C 329.265 330.839 312.527 347.577 312.527 368.175 C 312.527 372.296 309.183 375.64 305.058 375.64 C 300.93 375.64 297.594 372.296 297.594 368.175 C 297.594 339.359 321.047 315.905 349.864 315.905 C 378.68 315.905 402.13 339.358 402.13 368.175 C 402.126 372.296 398.782 375.64 394.661 375.64 L 394.66 375.64 Z"/>
</svg>